<svg xmlns="http://www.w3.org/2000/svg" width="512" height="512" viewBox="0 0 512 512" version="1.1"><path d="M 231.500 0.650 C 169.386 7.349, 112.549 35.130, 70.190 79.496 C 32.013 119.482, 7.097 173.437, 1.052 229.211 C -0.483 243.382, -0.239 272.618, 1.536 287.030 C 5.935 322.754, 19.376 361.030, 37.837 390.402 C 41.227 395.796, 44 400.893, 44 401.730 C 44 406.435, 27.310 442.207, 12.148 470 C 7.798 477.975, 3.932 485.925, 3.558 487.666 C 1.251 498.408, 13.427 510.822, 23.995 508.501 C 25.549 508.160, 38.224 502.137, 52.161 495.118 C 78.128 482.039, 97.764 473.287, 107.468 470.466 L 112.950 468.873 122.752 474.897 C 144.992 488.564, 175.102 500.679, 201.131 506.433 C 221.193 510.869, 237.758 512.292, 262.500 511.706 C 289.738 511.061, 305.585 508.627, 329.702 501.386 C 423.795 473.133, 493.119 393.933, 509.039 296.500 C 510.117 289.900, 511 282.813, 511 280.750 C 511 278.688, 511.450 277, 512 277 C 512.636 277, 513 269.147, 513 255.441 C 513 241.323, 512.655 234.095, 512 234.500 C 511.402 234.869, 511 233.633, 511 231.428 C 511 226.211, 508.263 209.361, 505.408 197 C 497.335 162.046, 478.974 124.294, 456.302 96.031 C 416.761 46.737, 360.276 13.721, 297 2.917 C 287.069 1.221, 279.465 0.725, 260 0.501 C 246.525 0.346, 233.700 0.413, 231.500 0.650 M 236 36.679 C 160.440 44.424, 95.872 87.784, 61.063 154.155 C 45.179 184.440, 37.383 214.324, 36.279 249.151 C 35.408 276.606, 38.716 299.794, 47.210 325.785 C 52.016 340.489, 63.113 363.197, 72.930 378.416 C 76.803 384.420, 80.263 390.886, 80.619 392.785 C 82.310 401.794, 78.766 415.322, 68.921 437.442 C 66.243 443.461, 64.152 448.460, 64.276 448.553 C 64.399 448.645, 70.125 446.337, 77 443.423 C 94.495 436.009, 105.855 432.797, 115 432.678 C 123.337 432.569, 122.883 432.389, 137.894 441.760 C 176.621 465.936, 217.872 477.148, 262.849 475.721 C 297.676 474.617, 327.560 466.821, 357.845 450.937 C 400.098 428.777, 432.417 395.528, 453.529 352.500 C 468.699 321.581, 476 290.227, 476 256 C 476 221.762, 468.648 190.168, 453.543 159.500 C 431.346 114.433, 398.058 81.063, 352.852 58.561 C 329.984 47.177, 304.880 39.888, 278.789 37.055 C 269.787 36.077, 244.074 35.851, 236 36.679 M 203.500 159.660 C 194.031 161.685, 183.492 166.201, 174.210 172.214 C 163.120 179.396, 79.749 262.473, 77.364 268.717 C 72.942 280.296, 81.416 292.994, 93.568 292.998 C 96.216 292.999, 109.124 288.924, 130.568 281.317 C 160.040 270.861, 164.340 269.593, 171.500 269.244 C 178.445 268.905, 180.050 269.160, 183.673 271.177 C 185.969 272.455, 203.744 288.767, 223.173 307.428 C 242.603 326.088, 261.168 343.082, 264.428 345.192 C 280.553 355.631, 303.585 356.630, 324.790 347.812 C 340.066 341.459, 344.957 337.307, 389.776 292.648 C 417.571 264.953, 432.729 249.126, 434.026 246.445 C 437.415 239.446, 436.365 232.134, 431.186 226.661 C 423.194 218.213, 420.216 218.570, 381.500 232.614 C 347.067 245.104, 339.888 246.734, 331.387 243.992 C 328.321 243.003, 319.476 234.770, 289.500 205.004 C 255.068 170.814, 250.866 166.972, 244.746 164.082 C 232.201 158.160, 217.757 156.611, 203.500 159.660 M 208.912 195.445 C 198.689 198.265, 192.011 202.966, 176.500 218.266 L 161.500 233.060 168.500 232.467 C 178.330 231.633, 190.643 234.025, 199.787 238.544 C 205.165 241.202, 209.844 244.759, 217.273 251.837 C 222.852 257.152, 239.786 273.347, 254.904 287.826 C 270.023 302.305, 283.767 314.876, 285.446 315.762 C 289.672 317.991, 301.090 317.944, 307.687 315.669 C 316.204 312.733, 324.754 306.446, 337.984 293.391 L 350.500 281.042 340.460 281.021 C 328.912 280.997, 321.262 279.319, 312 274.777 C 306.319 271.992, 300.712 266.840, 267.500 233.893 C 235.565 202.213, 228.862 196.022, 225.500 195.104 C 220.422 193.717, 214.753 193.833, 208.912 195.445 M 0.426 256.500 C 0.427 268.600, 0.571 273.413, 0.747 267.195 C 0.923 260.977, 0.922 251.077, 0.746 245.195 C 0.569 239.313, 0.425 244.400, 0.426 256.500" stroke="none" fill="#f2af4c" fill-rule="evenodd"/></svg>