<svg xmlns="http://www.w3.org/2000/svg" width="600" height="600" viewBox="0 0 600 600" version="1.1"><path d="M 293 8.643 C 265.767 10.650, 240.066 20.235, 221 35.496 C 195.971 55.529, 179.962 81.230, 173.324 112.034 C 170.767 123.904, 170.767 151.095, 173.324 162.966 C 179.080 189.682, 191.285 211.511, 211.096 230.526 C 236.984 255.374, 268 267.054, 304.481 265.694 C 325.988 264.892, 342.625 260.691, 358.760 251.988 C 396.206 231.790, 421.481 196.578, 427.047 156.850 C 428.666 145.301, 428.406 125.265, 426.499 114.504 C 418.682 70.406, 386.104 31.620, 344.176 16.496 C 328.871 10.975, 306.969 7.614, 293 8.643 M 285.660 51.048 C 249.807 57.065, 221.949 84.032, 213.910 120.500 C 212.060 128.894, 212.295 147.901, 214.354 156.363 C 219.978 179.477, 232.564 197.579, 251.991 210.494 C 277.407 227.391, 310.233 229.480, 337.758 215.953 C 350.149 209.864, 360.857 201.313, 368.122 191.707 C 389.152 163.900, 392.835 130.113, 378.160 99.620 C 369.634 81.905, 357.751 69.474, 340.880 60.621 C 323.249 51.370, 303.815 48.001, 285.660 51.048 M 275.036 307.085 C 199.607 311.875, 133.658 336.787, 96.500 374.524 C 75.470 395.882, 65.650 415.339, 62.962 440.979 C 61.637 453.613, 63.309 484.334, 66.055 497.796 C 79.685 564.629, 145.365 590.901, 299 590.975 C 383.738 591.016, 440.689 583.063, 477.520 566.047 C 504.135 553.751, 523.316 533.203, 530.773 509 C 535.079 495.025, 536.354 483.746, 536.429 459 C 536.494 437.556, 536.297 434.712, 534.185 426.500 C 531.472 415.954, 523.692 399.518, 517.305 390.843 C 506.680 376.409, 488.865 360.444, 470.933 349.287 C 421.510 318.534, 347.114 302.507, 275.036 307.085 M 271.500 348.617 C 238.931 351.835, 217.423 356.309, 192 365.156 C 144.473 381.696, 113.178 407.866, 105.539 437.460 C 102.690 448.494, 103.975 483.214, 107.649 494.500 C 112.507 509.423, 121.107 519.026, 136.546 526.769 C 150.661 533.848, 163.536 537.761, 187 542.105 C 238.811 551.697, 352.357 552.113, 407.500 542.913 C 463.533 533.565, 487.197 518.541, 493.126 488.551 C 494.666 480.759, 495.840 450.305, 494.893 442.714 C 489.601 400.307, 428.813 362.298, 348 350.864 C 336.695 349.265, 327.110 348.748, 304.500 348.517 C 288.550 348.355, 273.700 348.399, 271.500 348.617" stroke="none" fill="#f2af4c" fill-rule="evenodd"/></svg>